<svg id="Capa_1" enable-background="new 0 0 512 512" height="512" viewBox="0 0 512 512" width="512" xmlns="http://www.w3.org/2000/svg"><g><g><g><path d="m95.308 298.254-20.088 32.615c-3.828 6.215-12.723 6.581-17.067.716-39.462-53.275-58.153-106.754-58.153-145.936 0-85.917 65.262-155.547 145.75-155.547 9.264 0 18.324.92 27.107 2.684 7.026 1.411 10.41 9.487 6.602 15.557l-58.752 93.647 19.768 19.775c3.629 3.63 4.032 9.378.945 13.479l-63.538 84.404c-1.299 1.726-1.383 4.078-.212 5.893l17.58 27.216c1.076 1.668 1.099 3.806.058 5.497z" fill="#fc5a95"/><path d="m151.375 93.108-30.669 48.882 19.769 19.779c3.626 3.626 4.028 9.375.948 13.475l-32.914 43.711-32.863-11.961c-34.439-12.527-52.251-50.747-39.724-85.186 9.529-26.156 34.624-43.741 62.46-43.741 7.757 0 15.401 1.36 22.726 4.028z" fill="#fb3a82"/><path d="m512 185.649c0 75.069-68.6 202.616-220.51 280.704-9.849 5.069-20.047 9.921-30.596 14.526-3.111 1.36-6.665 1.36-9.766 0-10.549-4.605-20.748-9.457-30.596-14.526-55.369-28.453-99.666-63.483-133.613-100.147-3.745-4.045-3.584-10.342.315-14.241l56.957-56.957c2.012-2.012 2.012-5.273 0-7.284l-11.057-11.057c-4.023-4.023-4.023-10.546 0-14.569l86.802-86.802-20.355-20.355c-4.023-4.023-4.023-10.547.001-14.57l56.431-56.422c26.713-32.976 66.189-53.848 110.25-53.848 80.496.001 145.737 69.631 145.737 155.548z" fill="#fc5a95"/><g fill="#fb3a82"><path d="m355.145 238.003c-9.519 26.156-34.624 43.741-62.46 43.741-7.747 0-15.391-1.35-22.726-4.018l-111.775-40.682 61.749-61.749-20.356-20.356c-4.018-4.018-4.018-10.549 0-14.567l21.788-21.788 94.056 34.233c34.439 12.527 52.261 50.747 39.724 85.186z"/><path d="m512 185.639c0 75.087-68.598 202.622-220.511 280.719-9.852 5.059-20.046 9.915-30.6 14.526-3.107 1.357-6.659 1.357-9.766-.001-10.547-4.611-20.749-9.466-30.588-14.525-.518-.259-1.024-.531-1.53-.802 150.841-78.159 218.969-205.089 218.969-279.917 0-72.249-46.143-132.988-108.707-150.47 11.807-3.307 24.207-5.071 37.001-5.071 80.49 0 145.732 69.634 145.732 155.541z"/></g></g></g><g><g><path d="m277.006 258.361-194.311-70.723c-23.8-8.662-36.071-34.978-27.409-58.778 8.662-23.8 34.978-36.071 58.778-27.409l194.311 70.723c23.8 8.662 36.071 34.978 27.409 58.778-8.662 23.801-34.978 36.072-58.778 27.409z" fill="#fcd79f"/><path d="m335.781 230.952c-4.334 11.907-13.074 20.925-23.71 25.877-10.631 4.965-23.157 5.863-35.064 1.529l-33.223-12.092c11.897 4.33 24.424 3.432 35.064-1.529 10.636-4.952 19.377-13.971 23.71-25.877 8.664-23.804-3.612-50.114-27.407-58.774l33.223 12.092c23.804 8.663 36.071 34.969 27.407 58.774z" fill="#fbcc85"/></g><g><g><g id="XMLID_230_"><path d="m127.931 151.441c-2.792 0-5.486-1.517-6.863-4.165-1.967-3.786-.493-8.451 3.294-10.419l.257-.133c3.788-1.968 8.451-.493 10.419 3.294 1.967 3.786.493 8.451-3.294 10.419l-.257.133c-1.138.59-2.356.871-3.556.871z" fill="#fbcc85"/></g><g id="XMLID_229_"><path d="m99.641 164.541c-2.792 0-5.486-1.517-6.863-4.165-1.967-3.786-.493-8.451 3.294-10.419l.257-.133c3.787-1.969 8.451-.493 10.419 3.294 1.967 3.786.493 8.451-3.294 10.419l-.257.133c-1.139.591-2.356.871-3.556.871z" fill="#fbcc85"/></g><g id="XMLID_228_"><path d="m120.245 171.588c-2.777 0-5.461-1.502-6.844-4.13l-.126-.24c-1.987-3.776-.537-8.449 3.239-10.436 3.776-1.988 8.449-.537 10.436 3.239l.126.24c1.987 3.777.537 8.449-3.239 10.436-1.148.604-2.379.891-3.592.891z" fill="#fbcc85"/></g><g id="XMLID_227_"><path d="m107.71 144.501c-2.775 0-5.457-1.499-6.841-4.124l-.126-.239c-1.99-3.774-.544-8.448 3.231-10.438 3.774-1.99 8.448-.543 10.438 3.231l.126.239c1.99 3.774.544 8.448-3.231 10.438-1.149.605-2.382.893-3.597.893z" fill="#fbcc85"/></g></g><g><g id="XMLID_235_"><path d="m291.186 210.861c-2.787 0-5.478-1.513-6.856-4.155-1.974-3.783-.506-8.45 3.277-10.424l.257-.134c3.783-1.973 8.451-.507 10.424 3.278 1.974 3.783.506 8.45-3.277 10.424l-.257.134c-1.142.595-2.364.877-3.568.877z" fill="#fbcc85"/></g><g id="XMLID_233_"><path d="m262.896 223.961c-2.791 0-5.486-1.517-6.862-4.165-1.967-3.786-.493-8.451 3.294-10.419l.257-.133c3.784-1.967 8.451-.493 10.419 3.294 1.968 3.786.493 8.451-3.294 10.419l-.257.133c-1.138.591-2.356.871-3.557.871z" fill="#fbcc85"/></g><g id="XMLID_232_"><path d="m283.501 231.008c-2.774 0-5.454-1.496-6.839-4.119l-.127-.24c-1.993-3.773-.55-8.448 3.223-10.441 3.773-1.995 8.448-.55 10.441 3.222l.127.24c1.993 3.773.55 8.448-3.223 10.441-1.15.608-2.386.897-3.602.897z" fill="#fbcc85"/></g><g id="XMLID_231_"><path d="m270.966 203.921c-2.78 0-5.466-1.504-6.847-4.135l-.126-.239c-1.984-3.778-.53-8.449 3.247-10.433 3.781-1.985 8.45-.529 10.433 3.248l.126.239c1.984 3.778.53 8.449-3.247 10.433-1.148.601-2.376.887-3.586.887z" fill="#fbcc85"/></g></g></g><g><path d="m225.018 211.021-72.068-26.231c-5.051-1.838-7.655-7.423-5.816-12.473l6.445-17.709c1.838-5.051 7.423-7.655 12.473-5.816l72.068 26.231c5.051 1.838 7.655 7.423 5.816 12.473l-6.445 17.709c-1.838 5.05-7.422 7.654-12.473 5.816z" fill="#64b9fc"/><path d="m243.933 187.497-6.444 17.704c-1.841 5.057-7.416 7.657-12.473 5.816l-25.971-9.453c5.057 1.841 10.633-.759 12.473-5.816l6.444-17.704c1.841-5.057-.759-10.633-5.816-12.473l25.971 9.453c5.057 1.84 7.657 7.416 5.816 12.473z" fill="#31a7fb"/></g></g></g></svg>