<svg enable-background="new 0 0 24 24" height="512" viewBox="0 0 24 24" width="512" xmlns="http://www.w3.org/2000/svg"><path d="m12 9c-.552 0-1 .448-1 1v12c0 .552.448 1 1 1s1-.448 1-1v-12c0-.552-.448-1-1-1z"/><path d="m2.23 8.483c-.013-.015-.086-.101-.101-.115-.239-.237-.551-.368-.879-.368-.689 0-1.25.561-1.25 1.25v13.5c0 .689.561 1.25 1.25 1.25.355 0 .693-.148.92-.4l6.51-7.011c.206-.232.32-.529.32-.839 0-.328-.131-.64-.44-.94z"/><path d="m21.81 8.44-6.329 6.331c-.015.013-.099.086-.112.1-.238.239-.369.551-.369.879 0 .31.114.607.33.85l6.492 6.991c.23.256.577.409.928.409.689 0 1.25-.561 1.25-1.25v-13.5c0-1.019-1.267-1.764-2.19-.81z"/><path d="m18.96 4.886c.346.43.975.499 1.406.153.43-.346.499-.976.153-1.406-1.854-2.309-4.595-3.633-7.519-3.633-2.143 0-4.208.749-5.887 2.052l-1.833-1.832c-.215-.215-.536-.279-.817-.163-.28.116-.463.39-.463.693v5.5c0 .414.336.75.75.75h5.5c.303 0 .577-.183.693-.463s.052-.603-.163-.817l-2.242-2.243c1.294-.94 2.851-1.477 4.462-1.477 2.315 0 4.487 1.052 5.96 2.886z"/></svg>